# xmcd
#
# Track frame offsets:
# 150
# 17125
# 34370
# 54330
# 78590
# 92425
# 108865
# 120815
# 142750
# 156687
# 172095
#
# Disc length: 2540 seconds
#
#
# Revision: 0
# Processed by: cddbd v1.5.2PL0 Copyright (c) Steve Scherf et al.
# Submitted via: FreeRIP 2.90 
#
DISCID=8409ea0b
DTITLE=Harry Connick, Jr. - 20
DYEAR=1988
DGENRE=Blues
TTITLE0=Avalon
TTITLE1=Blue Skies
TTITLE2=Imagination
TTITLE3=Do You Know What It Means To Miss New Orleans
TTITLE4=Basin Street Blues
TTITLE5=Lazy River
TTITLE6=Please Don't Talk About Me When I'm Gone
TTITLE7=Stars Fell On Alabama
TTITLE8=S'wonderful
TTITLE9=If Only I Had A Brain
TTITLE10=Do Nothin' Till You Hear From Me
EXTD=
EXTT0=
EXTT1=
EXTT2=
EXTT3=
EXTT4=
EXTT5=
EXTT6=
EXTT7=
EXTT8=
EXTT9=
EXTT10=
PLAYORDER=
